<?xml version="1.0" standalone="no"?>
<!DOCTYPE svg PUBLIC "-//W3C//DTD SVG 20010904//EN"
 "http://www.w3.org/TR/2001/REC-SVG-20010904/DTD/svg10.dtd">
<svg version="1.0" xmlns="http://www.w3.org/2000/svg"
 width="1000.000000pt" height="1000.000000pt" viewBox="0 0 1000.000000 1000.000000"
 preserveAspectRatio="xMidYMid meet">
<metadata>
Created by potrace 1.14, written by Peter Selinger 2001-2017
</metadata>
<g transform="translate(0.000000,1000.000000) scale(0.100000,-0.100000)"
fill="#000000" stroke="none">
<path d="M4700 8612 c-14 -2 -29 -8 -34 -12 -5 -5 -17 -5 -28 1 -10 5 -18 6
-18 2 0 -4 -16 -9 -37 -10 -20 -1 -40 -6 -46 -12 -5 -5 -16 -7 -23 -4 -8 3
-14 1 -14 -5 0 -5 -11 -8 -25 -7 -14 2 -25 -1 -25 -6 0 -5 -11 -9 -24 -9 -14
0 -28 -5 -31 -10 -4 -6 -10 -8 -15 -5 -5 3 -12 0 -15 -6 -4 -5 -13 -8 -20 -5
-7 2 -16 -2 -19 -10 -3 -8 -9 -13 -13 -12 -14 3 -63 -14 -63 -22 0 -4 -14 -10
-31 -14 -17 -3 -28 -10 -24 -16 4 -6 3 -9 -2 -8 -13 3 -54 -13 -74 -31 -11 -9
-22 -14 -26 -13 -3 2 -9 0 -12 -5 -12 -16 -120 -93 -131 -93 -6 0 -9 -4 -6 -8
5 -8 -28 -42 -40 -42 -10 0 -72 -68 -67 -73 2 -3 -5 -8 -16 -12 -12 -3 -19
-10 -16 -15 3 -5 -4 -15 -15 -23 -11 -7 -17 -17 -12 -22 4 -4 0 -6 -10 -2 -9
3 -19 3 -23 -1 -10 -10 -29 -9 -37 3 -5 6 -8 4 -8 -5 0 -12 -2 -12 -9 -1 -6 9
-14 10 -27 4 -11 -5 -38 -9 -61 -9 -24 1 -43 -3 -43 -7 0 -5 -4 -5 -10 -2 -5
3 -18 2 -28 -4 -11 -6 -24 -6 -36 1 -14 8 -17 7 -12 -1 4 -6 0 -12 -8 -12 -29
-3 -34 -4 -42 -11 -4 -5 -20 -8 -35 -8 -15 0 -31 -5 -34 -10 -4 -6 -11 -8 -16
-5 -5 4 -9 1 -9 -5 0 -7 -7 -10 -15 -6 -8 3 -15 1 -15 -4 0 -5 -7 -7 -15 -4
-10 4 -15 0 -15 -10 0 -13 -4 -15 -19 -7 -15 8 -20 7 -25 -5 -3 -8 -10 -12
-16 -9 -6 3 -23 -3 -39 -14 -16 -12 -36 -21 -44 -21 -9 0 -22 -7 -31 -15 -8
-9 -18 -15 -21 -15 -18 2 -113 -55 -108 -64 3 -6 2 -8 -2 -3 -5 4 -19 0 -32
-8 -13 -9 -28 -13 -33 -10 -6 4 -7 -2 -3 -12 3 -10 3 -15 -2 -11 -4 4 -14 0
-22 -10 -9 -10 -11 -11 -7 -2 5 8 -17 -10 -48 -41 -32 -31 -59 -54 -62 -51 -4
3 -6 -1 -6 -8 0 -7 -11 -23 -25 -36 -14 -13 -25 -26 -25 -29 0 -3 -6 -18 -15
-35 -8 -16 -16 -37 -18 -47 -1 -10 -6 -24 -10 -30 -5 -8 -4 -13 2 -13 6 0 11
-7 11 -16 0 -8 5 -12 10 -9 6 3 10 1 10 -4 0 -6 9 -11 19 -11 11 0 23 -5 26
-10 4 -7 13 -7 26 0 14 8 19 7 19 -1 0 -8 4 -8 15 1 8 7 15 8 15 3 0 -10 71
-10 88 1 6 3 12 1 14 -5 3 -9 9 -9 26 0 14 7 22 8 22 2 0 -6 7 -8 15 -5 8 4
12 11 8 18 -4 8 -2 8 7 -1 7 -6 19 -9 28 -6 11 5 13 3 7 -8 -7 -11 -6 -12 6
-3 18 14 57 16 65 3 4 -6 11 -6 20 2 11 9 18 8 31 -2 9 -8 14 -9 10 -3 -4 7 5
11 23 11 16 0 27 -4 24 -9 -3 -4 6 -4 20 2 14 5 26 6 26 1 0 -5 14 -8 31 -7
16 1 32 -1 35 -6 3 -5 9 -6 14 -3 5 3 11 1 14 -4 3 -5 15 -7 26 -4 11 3 20 0
20 -6 0 -5 7 -8 15 -5 8 4 22 1 29 -5 9 -8 16 -8 20 -2 4 6 14 4 26 -6 11 -10
16 -22 12 -27 -5 -6 -8 -18 -7 -26 0 -8 -4 -18 -10 -22 -6 -5 -5 -8 3 -8 8 0
10 -5 5 -12 -4 -7 -9 -29 -11 -48 -1 -19 -5 -53 -8 -75 -3 -22 -5 -49 -5 -60
0 -10 -5 -26 -12 -34 -10 -12 -9 -13 2 -6 11 6 13 4 7 -11 -4 -10 -9 -27 -11
-37 -2 -10 -7 -28 -11 -39 -5 -16 -3 -19 7 -13 8 5 5 -1 -5 -13 -11 -12 -16
-22 -11 -22 4 0 1 -8 -6 -17 -11 -13 -11 -15 -1 -9 11 7 11 4 0 -15 -7 -13
-17 -27 -21 -30 -5 -3 -8 -9 -8 -13 1 -3 1 -7 0 -8 0 -2 -2 -12 -4 -22 -2 -10
-10 -23 -17 -27 -7 -5 -9 -9 -4 -9 5 0 1 -9 -8 -19 -10 -11 -18 -26 -20 -34
-1 -8 -8 -22 -14 -30 -7 -9 -14 -25 -15 -36 -1 -11 -7 -23 -13 -25 -7 -3 -15
-18 -19 -35 -4 -17 -11 -31 -16 -31 -6 0 -7 -4 -4 -10 3 -5 1 -10 -5 -10 -6 0
-9 -4 -5 -9 3 -5 -2 -16 -10 -24 -8 -9 -15 -23 -15 -31 0 -9 -5 -16 -11 -16
-5 0 -8 -4 -4 -9 3 -5 1 -12 -5 -16 -6 -4 -8 -10 -5 -15 3 -4 -2 -10 -10 -14
-8 -3 -12 -12 -9 -21 4 -8 1 -15 -6 -15 -7 0 -10 -7 -6 -15 3 -8 1 -15 -4 -15
-5 0 -14 -18 -20 -40 -6 -22 -16 -40 -22 -40 -6 0 -8 -3 -5 -7 4 -3 2 -12 -4
-20 -6 -7 -8 -13 -4 -13 4 0 0 -11 -9 -25 -9 -14 -13 -25 -10 -25 4 0 0 -8 -9
-18 -10 -10 -14 -22 -10 -26 5 -4 -1 -14 -11 -22 -11 -8 -14 -14 -8 -14 7 0
12 -5 12 -11 0 -5 -4 -8 -9 -5 -6 4 -18 -21 -36 -84 -1 -3 -7 -18 -14 -35 -7
-16 -13 -38 -14 -47 -1 -10 -5 -18 -10 -18 -5 0 -7 -7 -3 -15 3 -8 1 -15 -4
-15 -6 0 -9 -3 -9 -7 1 -5 0 -12 -1 -18 -1 -5 -3 -14 -4 -20 -12 -53 -20 -75
-28 -75 -5 0 -6 -5 -2 -11 3 -6 0 -15 -7 -20 -12 -7 -12 -9 0 -9 11 0 11 -3 1
-15 -6 -8 -9 -19 -6 -24 4 -5 2 -12 -4 -16 -6 -4 -8 -11 -4 -16 3 -5 1 -15 -4
-22 -5 -7 -8 -20 -7 -29 2 -10 -2 -18 -8 -18 -7 0 -5 -5 3 -10 9 -6 10 -10 3
-10 -6 0 -10 -9 -8 -20 2 -11 0 -20 -4 -20 -4 0 -7 -20 -6 -45 0 -25 -2 -45
-5 -45 -3 0 -6 -24 -7 -52 -1 -29 -4 -75 -7 -103 -3 -27 -6 -70 -7 -95 -1 -25
-7 -51 -13 -59 -8 -11 -8 -13 2 -7 6 4 12 2 12 -3 0 -6 -6 -11 -12 -11 -10 0
-9 -3 1 -9 10 -6 10 -10 1 -16 -9 -6 -9 -10 1 -16 8 -5 9 -9 4 -9 -6 0 -10
-25 -10 -57 0 -32 -3 -77 -6 -100 -3 -23 -1 -49 4 -59 7 -11 6 -15 -1 -10 -7
4 -11 -8 -10 -36 0 -24 -1 -45 -1 -48 -1 -3 -3 -41 -4 -85 -2 -44 -7 -86 -11
-94 -6 -9 -5 -12 2 -7 7 4 10 -1 9 -14 -1 -11 -6 -20 -12 -20 -6 0 -7 -3 0 -8
12 -9 15 -52 3 -52 -5 0 -5 -8 0 -18 5 -9 6 -26 3 -36 -4 -10 -6 -43 -4 -72 1
-29 -2 -56 -7 -59 -6 -4 -7 -12 -3 -18 10 -16 11 -97 1 -103 -4 -3 -4 -13 0
-22 5 -9 8 -68 8 -129 -1 -69 3 -113 9 -113 6 0 3 -5 -5 -10 -13 -9 -13 -10 0
-10 13 0 13 -1 0 -10 -10 -6 -11 -10 -3 -10 9 0 10 -7 3 -25 -5 -14 -6 -27 0
-30 9 -6 10 -18 10 -87 0 -23 6 -53 13 -65 4 -6 1 -13 -5 -16 -10 -3 -10 -8
-2 -18 6 -8 10 -29 9 -46 -1 -19 3 -33 9 -33 6 0 4 -5 -4 -10 -8 -5 -10 -10
-3 -10 6 0 10 -8 9 -17 -2 -10 2 -21 8 -25 8 -6 8 -8 -1 -8 -13 0 -5 -41 11
-52 7 -5 7 -8 -2 -8 -7 0 -10 -5 -6 -12 6 -10 13 -42 16 -75 1 -7 5 -13 10
-13 5 0 7 -4 4 -9 -4 -5 0 -12 6 -14 10 -4 9 -6 -1 -6 -11 -1 -11 -4 -1 -16 7
-8 10 -22 6 -30 -3 -9 0 -15 8 -15 9 0 12 -7 9 -20 -3 -11 0 -20 6 -20 6 0 11
-8 11 -18 0 -22 22 -72 33 -72 4 0 7 -7 7 -15 0 -8 4 -15 10 -15 5 0 9 -3 9
-7 -4 -23 2 -43 11 -38 9 6 14 -8 11 -27 0 -5 6 -8 15 -8 8 0 12 -4 9 -10 -3
-5 -1 -10 4 -10 6 0 11 -7 11 -16 0 -8 4 -12 10 -9 5 3 17 -3 27 -15 10 -11
25 -20 35 -20 10 0 18 -4 18 -9 0 -6 8 -10 18 -9 20 0 72 -11 84 -18 4 -3 8
-1 8 4 0 5 11 8 25 7 14 -2 25 1 25 6 0 4 6 6 13 3 14 -5 90 60 81 68 -2 3 0
17 5 31 7 18 7 27 -2 30 -7 3 -2 4 11 4 14 -1 22 -8 22 -19 0 -10 9 -23 20
-30 11 -7 20 -18 20 -25 0 -7 5 -13 10 -13 6 0 10 -6 10 -14 0 -7 11 -25 25
-40 14 -15 23 -31 20 -36 -3 -4 2 -11 11 -14 8 -3 12 -11 9 -16 -4 -6 -1 -9 7
-8 7 2 12 -3 11 -9 -2 -7 2 -13 7 -13 6 0 10 -6 10 -14 0 -8 7 -17 16 -20 8
-3 12 -10 9 -16 -3 -5 -3 -10 2 -10 4 0 19 -17 33 -38 14 -20 28 -39 31 -42 3
-3 14 -20 23 -37 9 -18 21 -33 26 -33 6 0 10 -6 10 -13 0 -7 9 -18 20 -25 12
-7 18 -17 15 -22 -3 -6 2 -10 11 -10 10 0 15 -3 11 -6 -3 -4 12 -24 34 -45 22
-21 39 -42 38 -46 -1 -4 8 -13 20 -19 11 -6 18 -14 15 -17 -4 -3 5 -12 19 -18
15 -7 24 -16 21 -20 -3 -5 2 -9 10 -9 9 0 16 -7 16 -16 0 -8 4 -13 8 -10 5 3
14 -4 22 -14 8 -10 17 -17 22 -14 4 3 8 -2 8 -11 0 -9 5 -13 10 -10 6 3 10 -2
10 -11 0 -10 3 -14 7 -11 3 4 17 -5 30 -19 12 -14 23 -21 23 -15 0 5 13 -3 29
-17 45 -42 65 -57 71 -54 2 2 6 -1 8 -6 1 -5 -13 -17 -33 -28 -19 -10 -35 -22
-35 -26 0 -5 -5 -8 -11 -8 -6 0 -25 -10 -42 -22 -17 -12 -27 -16 -22 -7 8 12
6 12 -8 0 -9 -7 -14 -18 -10 -24 3 -5 1 -7 -5 -3 -6 3 -13 2 -17 -4 -4 -6 -11
-8 -16 -5 -5 4 -12 0 -15 -9 -3 -9 -12 -12 -21 -9 -12 5 -14 3 -8 -7 6 -10 4
-12 -8 -7 -11 4 -17 1 -17 -9 0 -8 -4 -13 -9 -10 -4 3 -19 -3 -31 -14 -13 -11
-27 -20 -32 -20 -6 0 -23 -9 -39 -21 -16 -11 -29 -17 -29 -14 0 4 -7 -1 -16
-9 -8 -9 -20 -14 -25 -11 -5 4 -9 1 -9 -5 0 -6 -4 -8 -10 -5 -5 3 -10 -1 -10
-9 0 -9 -3 -15 -7 -15 -20 3 -34 -2 -29 -10 3 -5 -4 -11 -16 -14 -12 -4 -19
-9 -16 -13 4 -3 -3 -16 -15 -28 -23 -22 -34 -66 -17 -66 6 0 9 -3 9 -7 -4 -23
2 -43 11 -38 5 3 10 1 10 -4 0 -6 9 -11 20 -11 11 0 20 -6 20 -12 0 -9 4 -8
10 2 5 8 10 11 10 5 0 -10 48 -13 66 -4 5 3 18 5 29 5 11 -1 23 3 26 8 4 5 12
-1 18 -13 9 -16 9 -21 0 -21 -7 0 -4 -9 7 -22 12 -14 14 -18 4 -13 -8 5 -1 -5
15 -22 33 -31 56 -44 93 -50 17 -3 22 0 16 9 -6 10 -5 10 7 2 15 -12 54 -12
65 -1 4 4 16 7 26 7 10 0 27 5 38 10 11 6 29 15 40 20 12 6 25 8 29 5 5 -3 11
2 14 9 3 8 15 14 26 13 14 -1 19 -8 18 -27 -3 -25 27 -58 68 -75 28 -11 95
-14 101 -3 3 4 10 6 15 3 5 -4 9 -1 9 5 0 6 5 8 10 5 6 -3 10 -1 10 4 0 6 7
11 15 11 8 0 15 5 15 11 0 6 7 8 17 5 10 -4 14 -4 11 0 -8 8 16 34 31 34 6 0
11 7 11 16 0 8 4 13 9 9 6 -3 13 1 18 8 4 7 19 21 33 30 13 9 22 17 18 17 -3
0 10 17 31 38 20 21 40 36 45 33 5 -2 7 3 3 12 -3 9 -3 16 2 14 10 -3 80 71
73 78 -3 3 0 5 7 5 7 0 10 3 8 8 -2 4 7 17 20 29 13 12 23 20 23 16 0 -3 8 1
17 8 11 10 14 10 9 2 -7 -12 17 -18 52 -14 8 1 21 -4 30 -11 13 -11 14 -11 7
2 -8 13 -7 13 8 1 14 -11 17 -11 17 0 0 9 3 10 8 3 4 -6 23 -11 42 -12 19 -1
56 -3 82 -6 30 -2 46 0 42 6 -4 6 2 6 13 -1 11 -6 23 -7 27 -4 3 3 6 1 6 -7 0
-8 4 -9 13 -3 6 6 20 10 31 10 18 0 18 -1 0 -14 -10 -7 -14 -13 -8 -13 5 0 -6
-8 -23 -16 -18 -9 -44 -27 -58 -40 -14 -13 -25 -21 -25 -18 0 3 -10 -4 -22
-15 -11 -11 -25 -18 -30 -15 -5 3 -7 2 -6 -3 2 -4 -1 -10 -7 -12 -19 -9 -33
-26 -27 -35 3 -5 0 -6 -6 -3 -9 6 -94 -67 -100 -85 -1 -5 -2 -9 -3 -10 -6 -16
-4 -58 3 -58 5 0 7 -3 5 -8 -3 -4 11 -14 29 -23 19 -9 34 -13 34 -8 0 5 12 4
26 -1 30 -12 37 -12 31 -2 -3 4 19 8 49 8 49 1 54 0 54 -20 0 -12 6 -28 13
-35 10 -11 9 -12 -3 -6 -13 7 -13 6 0 -8 23 -23 90 -58 90 -46 0 6 6 6 19 -1
12 -6 22 -6 25 -1 3 5 20 8 37 7 16 -1 32 1 35 6 3 5 9 6 14 3 5 -3 11 -1 15
5 4 6 11 8 16 5 5 -4 9 -1 9 5 0 7 6 10 14 7 8 -3 16 -2 18 3 2 5 14 11 28 14
14 2 24 9 23 15 -2 5 4 8 12 5 8 -3 14 -9 13 -12 -3 -27 4 -62 11 -57 5 3 15
0 23 -7 24 -23 108 -33 120 -14 6 8 8 7 8 -2 0 -10 4 -9 16 2 8 9 20 14 25 11
5 -4 9 -1 9 6 0 7 3 10 6 6 6 -6 72 38 86 58 4 5 8 7 8 2 0 -4 16 9 35 29 19
19 35 33 35 30 0 -10 82 78 167 181 10 12 26 31 36 42 9 12 17 26 17 31 0 6 4
10 9 10 5 0 11 9 14 21 4 14 10 18 19 13 7 -4 10 -4 6 0 -3 4 4 31 17 59 13
28 22 54 19 59 -3 4 -1 8 5 8 5 0 8 8 6 19 -4 23 24 48 53 46 12 -1 22 1 22 5
0 7 19 10 58 10 12 0 22 5 22 10 0 5 7 7 15 4 8 -4 15 -1 15 5 0 6 7 8 15 5 8
-4 23 0 32 7 14 12 16 12 8 0 -6 -11 -5 -12 6 -5 15 9 20 11 45 13 9 1 12 6 8
14 -6 9 -4 9 8 -1 11 -9 18 -10 23 -2 3 6 11 8 16 5 5 -4 9 -1 9 5 0 6 4 9 9
6 9 -6 64 9 95 25 14 8 16 8 10 -3 -6 -11 -5 -11 9 0 9 8 21 11 26 8 5 -4 12
-2 16 4 4 6 11 8 16 5 5 -4 9 -2 9 4 0 5 9 8 20 6 11 -2 20 1 20 7 0 6 3 9 6
5 4 -3 22 0 41 8 19 8 37 14 41 13 4 -1 17 2 30 6 21 7 82 -11 82 -25 0 -3 7
-6 15 -7 8 -1 22 -3 30 -4 8 -1 15 -5 15 -10 0 -4 13 -8 28 -8 16 0 32 -3 36
-7 12 -12 156 -15 156 -4 0 6 3 10 8 9 21 -4 60 15 55 28 -3 9 2 14 17 14 11
0 18 5 15 10 -3 6 -1 10 4 10 6 0 11 9 11 20 0 11 4 20 9 20 22 0 -5 121 -32
141 -4 3 -9 15 -10 27 0 11 -4 19 -8 16 -4 -2 -10 5 -14 16 -3 11 -12 26 -19
32 -6 7 -20 31 -31 53 -17 36 -19 66 -20 280 -1 133 -5 247 -10 255 -5 9 -4
11 3 6 15 -9 12 36 -3 46 -7 5 -7 8 0 8 12 0 12 70 1 88 -4 7 -2 12 4 12 7 0
8 6 0 19 -7 14 -6 21 3 24 9 4 9 8 -2 15 -11 8 -11 10 0 15 8 3 10 6 4 6 -6 1
-9 34 -8 81 1 53 -2 78 -9 74 -6 -4 -7 0 -1 12 10 21 9 65 -1 82 -3 6 -2 13 4
17 6 4 7 12 0 24 -6 12 -5 22 3 30 8 8 8 14 2 19 -6 4 -10 34 -9 67 0 33 -4
68 -8 78 -6 11 -5 17 2 17 6 0 8 5 3 13 -4 6 -7 32 -8 57 0 25 -3 50 -7 55 -4
6 -3 17 2 25 5 9 5 19 -2 27 -7 9 -7 18 3 30 12 14 12 16 0 8 -11 -6 -13 -3
-9 13 4 12 3 24 0 26 -4 2 -7 32 -6 65 0 34 -3 61 -7 61 -3 0 -7 24 -8 53 -2
74 -6 105 -13 112 -4 4 -4 18 -2 32 3 14 -1 32 -8 41 -11 13 -11 14 0 8 11 -7
12 -4 3 12 -6 10 -9 29 -6 41 2 11 -1 23 -6 26 -5 4 -7 11 -3 16 3 5 0 16 -6
24 -9 11 -9 15 -1 15 8 0 9 5 2 19 -6 10 -7 21 -4 25 3 3 0 6 -8 6 -12 0 -11
2 1 10 11 8 12 12 3 18 -7 4 -12 16 -12 27 1 22 -8 68 -18 100 -4 11 -6 28 -4
39 1 10 -1 16 -6 13 -5 -3 -9 10 -8 29 1 18 -2 34 -8 34 -5 0 -7 7 -3 15 3 8
2 15 -2 15 -4 0 -8 14 -9 31 -1 17 -8 38 -15 47 -11 13 -11 14 2 7 13 -8 13
-6 2 8 -8 9 -11 21 -7 27 3 5 2 10 -4 10 -6 0 -7 7 -4 17 5 12 3 14 -7 8 -10
-6 -12 -4 -7 10 4 9 2 24 -4 32 -7 7 -9 16 -6 20 4 3 2 12 -4 20 -9 10 -8 13
2 13 11 0 11 2 -1 10 -8 5 -16 15 -16 22 -1 7 -3 15 -4 18 -3 9 -10 45 -12 63
-1 9 -6 17 -11 17 -5 0 -7 6 -4 14 3 8 0 17 -7 19 -9 4 -12 15 -8 33 3 17 1
25 -5 21 -6 -4 -11 -1 -10 6 1 30 -4 48 -12 43 -4 -3 -7 6 -5 19 1 14 -2 25
-7 25 -4 0 -6 7 -3 15 4 8 1 15 -5 15 -6 0 -8 7 -5 15 4 8 2 15 -4 15 -5 0
-13 7 -16 16 -4 10 -2 13 7 8 8 -6 8 -3 -1 9 -8 9 -11 20 -8 26 3 5 -1 12 -10
15 -8 3 -13 10 -9 16 3 5 2 17 -3 27 -6 10 -14 29 -20 43 -5 14 -18 42 -27 63
-9 21 -14 41 -11 44 2 3 -4 14 -15 26 -10 11 -19 31 -19 44 0 13 -4 23 -8 23
-4 0 -9 10 -9 22 -1 13 -7 24 -13 26 -5 2 -8 8 -4 13 3 5 0 9 -6 9 -7 0 -10 6
-7 14 3 8 1 16 -4 18 -5 2 -11 13 -12 26 0 12 -5 22 -9 22 -4 0 -8 7 -8 16 0
8 -4 13 -9 10 -5 -4 -7 4 -3 16 3 14 1 19 -6 14 -8 -5 -10 -2 -6 8 3 9 1 16
-5 16 -6 0 -11 9 -11 20 0 11 -4 20 -10 20 -5 0 -10 9 -10 20 0 11 -5 20 -10
20 -6 0 -9 3 -8 8 1 4 -5 21 -15 38 -9 17 -13 35 -9 39 4 5 1 5 -5 1 -11 -6
-19 8 -10 17 1 1 -8 13 -20 27 -13 13 -23 29 -23 36 0 6 -9 23 -21 38 -11 14
-17 26 -13 26 4 0 -1 6 -12 14 -10 8 -16 17 -12 21 3 4 -1 15 -10 24 -31 33
-52 61 -52 70 0 5 -12 19 -26 30 -15 12 -23 21 -19 21 5 0 -1 8 -12 18 -18 15
-20 29 -19 157 1 77 -3 146 -7 153 -6 7 -5 12 1 12 7 0 8 10 3 28 -4 15 -6 33
-3 41 3 10 0 11 -9 5 -11 -6 -12 -4 -4 7 11 14 11 24 -1 119 -3 30 -7 65 -7
78 -1 12 -4 22 -8 22 -4 0 -6 16 -4 35 1 20 -2 38 -7 41 -4 3 -6 9 -3 14 3 5
1 19 -5 30 -8 14 -8 20 0 20 6 0 4 7 -5 16 -13 14 -14 19 -3 25 7 5 8 9 2 9
-11 0 -13 7 -16 55 -1 14 -6 25 -12 25 -5 0 -7 3 -3 6 3 3 -1 23 -8 44 -7 21
-11 41 -8 44 4 3 2 6 -4 6 -6 0 -10 10 -9 23 1 12 -5 28 -14 35 -13 12 -13 12
0 6 13 -7 13 -5 1 9 -7 9 -10 17 -6 17 4 0 2 6 -4 13 -6 8 -8 17 -4 20 3 4 1
7 -6 7 -7 0 -10 4 -6 9 3 5 1 12 -5 16 -6 4 -8 11 -5 16 4 5 1 9 -5 9 -6 0 -8
5 -5 10 3 6 1 10 -5 10 -7 0 -10 6 -8 12 3 7 -2 19 -9 27 -8 7 -12 20 -9 27 3
8 1 14 -4 14 -6 0 -10 7 -10 15 0 8 -4 15 -10 15 -5 0 -10 8 -10 19 0 10 -7
24 -15 31 -8 7 -13 15 -10 19 2 4 -5 13 -15 21 -10 8 -17 17 -14 21 2 4 -7 20
-21 35 -14 15 -25 33 -25 41 0 8 -4 11 -10 8 -5 -3 -10 1 -10 9 0 9 -9 21 -20
28 -11 7 -20 18 -20 25 0 7 -7 13 -17 13 -9 0 -14 3 -10 6 9 9 -125 134 -144
134 -5 0 -9 7 -9 16 0 10 -6 14 -15 10 -8 -3 -15 -1 -15 4 0 5 -18 20 -40 33
-22 13 -37 27 -33 30 3 4 -1 7 -11 7 -10 0 -24 7 -33 15 -8 8 -19 13 -24 10
-5 -4 -9 -2 -9 3 0 6 -14 15 -31 21 -19 7 -28 15 -23 22 4 7 3 9 -3 6 -5 -3
-22 1 -37 9 -16 7 -35 14 -42 14 -8 0 -14 5 -14 10 0 6 -3 9 -7 8 -5 -1 -18 3
-30 10 -13 7 -23 10 -23 6 0 -3 -11 1 -25 10 -14 9 -25 14 -25 12 0 -2 -24 4
-52 14 -29 10 -56 16 -60 14 -5 -3 -8 0 -8 6 0 7 -6 10 -14 7 -7 -3 -19 0 -25
6 -8 8 -11 8 -11 -2 0 -8 -5 -7 -16 4 -14 13 -19 14 -25 3 -7 -11 -9 -11 -9 0
0 7 -4 11 -9 7 -5 -3 -12 -1 -15 3 -3 5 -17 8 -31 7 -14 -2 -27 1 -31 6 -3 5
-14 4 -26 -2 -11 -6 -18 -7 -15 -2 4 6 -18 11 -51 12 -104 5 -247 6 -272 3z"/>
</g>
</svg>
